<?xml version="1.0" standalone="no"?>
<!DOCTYPE svg PUBLIC "-//W3C//DTD SVG 20010904//EN"
 "http://www.w3.org/TR/2001/REC-SVG-20010904/DTD/svg10.dtd">
<svg version="1.0" xmlns="http://www.w3.org/2000/svg"
 width="64.000000pt" height="64.000000pt" viewBox="0 0 64.000000 64.000000"
 preserveAspectRatio="xMidYMid meet">

<g transform="translate(0.000000,64.000000) scale(0.100000,-0.100000)"
fill="#000000" stroke="none">
<path d="M165 581 c-43 -11 -70 -30 -91 -65 -17 -27 -19 -53 -19 -196 0 -184
7 -209 69 -246 27 -17 52 -19 196 -19 144 0 169 2 196 19 62 37 69 62 69 246
0 144 -2 169 -19 196 -36 59 -65 68 -226 71 -80 1 -158 -1 -175 -6z m110 -171
c3 -5 -11 -27 -31 -50 l-36 -40 36 -40 c35 -39 39 -60 12 -60 -15 0 -96 84
-96 100 0 16 81 100 96 100 7 0 15 -4 19 -10z m164 -35 c22 -24 41 -49 41 -55
0 -16 -81 -100 -96 -100 -27 0 -23 21 12 60 l36 40 -36 40 c-35 39 -39 60 -12
60 8 0 32 -20 55 -45z"/>
</g>
</svg>
